<?xml version="1.0" standalone="no"?>
<!DOCTYPE svg PUBLIC "-//W3C//DTD SVG 20010904//EN"
 "http://www.w3.org/TR/2001/REC-SVG-20010904/DTD/svg10.dtd">
<svg version="1.0" xmlns="http://www.w3.org/2000/svg"
 width="282.000000pt" height="282.000000pt" viewBox="0 0 282.000000 282.000000"
 preserveAspectRatio="xMidYMid meet">
<metadata>
Created by potrace 1.14, written by Peter Selinger 2001-2017
</metadata>
<g transform="translate(0.000000,282.000000) scale(0.100000,-0.100000)"
fill="#000000" stroke="none">
<path d="M495 2009 c-100 -13 -236 -51 -339 -95 l-89 -37 6 -141 c8 -218 63
-397 174 -563 75 -114 206 -236 324 -302 l56 -31 79 51 c94 61 209 170 270
255 23 33 64 104 90 157 l47 97 108 0 c74 0 109 4 111 12 2 6 13 -31 24 -83
31 -154 41 -136 88 164 l41 259 35 -388 c30 -329 37 -389 51 -392 13 -2 18 19
28 145 7 81 15 163 18 181 5 32 6 32 20 12 8 -11 18 -18 23 -15 5 3 20 41 35
86 15 44 29 79 30 77 2 -2 19 -46 38 -98 21 -58 40 -95 48 -95 8 0 24 28 38
68 l23 67 454 0 c398 0 454 2 454 15 0 13 -56 15 -467 13 l-468 -3 -15 -42
c-8 -24 -17 -43 -20 -43 -3 0 -21 43 -40 95 -43 120 -56 121 -89 7 -13 -45
-27 -82 -31 -82 -4 0 -12 11 -18 25 -6 14 -18 25 -26 25 -11 0 -16 -23 -22
-100 -3 -56 -9 -98 -13 -95 -3 4 -19 158 -36 343 -42 472 -38 477 -140 -163
l-8 -50 -17 83 c-10 45 -20 86 -24 89 -10 10 -24 -9 -33 -47 l-9 -35 -93 -3
c-85 -3 -92 -1 -87 15 25 83 38 169 43 289 l6 140 -69 31 c-202 89 -425 127
-609 102z m383 -133 c51 -14 115 -35 143 -47 46 -20 49 -24 49 -59 0 -20 2
-59 5 -86 3 -35 2 -40 -3 -19 -7 25 -9 19 -15 -40 -24 -248 -172 -500 -375
-643 l-59 -41 -64 43 c-84 57 -166 132 -229 211 -49 61 -64 89 -36 66 8 -7 -3
21 -23 62 -58 115 -101 304 -101 443 l0 42 68 25 c173 64 246 77 412 72 105
-3 156 -9 228 -29z"/>
<path d="M262 1764 c18 -67 75 -181 99 -198 13 -9 19 -16 14 -16 -5 0 4 -13
20 -30 19 -20 39 -30 57 -30 26 0 28 -2 18 -21 -10 -17 -7 -28 16 -61 23 -33
29 -37 34 -22 6 16 7 16 14 -2 6 -15 -1 -26 -31 -51 l-38 -33 27 0 c21 0 26
-4 21 -16 -12 -31 32 -10 48 24 13 25 18 29 23 17 9 -23 -14 -60 -54 -90 l-34
-25 32 0 c24 0 30 -4 26 -15 -7 -17 4 -19 26 -5 11 7 17 2 26 -18 l11 -27 15
29 c9 18 18 25 22 17 11 -17 39 -14 32 4 -4 11 2 15 27 15 l32 0 -35 24 c-46
31 -64 64 -52 96 9 25 9 25 16 -8 4 -18 16 -37 26 -42 26 -14 33 -12 26 5 -4
11 2 15 24 15 l29 0 -39 38 c-37 36 -38 39 -30 82 l7 45 2 -49 1 -50 26 35
c17 23 24 43 21 62 -3 24 0 27 23 27 27 0 86 51 73 63 -3 4 -1 7 5 7 14 0 65
78 67 102 1 9 6 22 12 30 12 15 44 108 37 108 -2 0 -25 -22 -51 -48 -27 -27
-84 -71 -128 -97 -92 -56 -125 -83 -125 -102 0 -8 -4 -11 -10 -8 -5 3 -10 20
-10 36 0 36 -35 54 -75 39 -27 -10 -34 -30 -10 -30 9 0 15 -9 15 -25 0 -33
-21 -32 -41 3 -9 16 -55 51 -110 84 -53 31 -114 77 -137 102 -23 25 -44 46
-46 46 -3 0 0 -16 6 -36z"/>
</g>
</svg>
